<svg width="21" height="19" viewBox="0 0 21 19" fill="none" xmlns="http://www.w3.org/2000/svg">
<path fill-rule="evenodd" clip-rule="evenodd" d="M17.7173 12.5231C17.9943 11.5308 18.1328 10.4323 18.1328 9.22782C18.1328 8.12228 18.0161 7.10707 17.7828 6.18218H15.2878C15.1824 5.59741 14.9863 5.0828 14.6994 4.63836C14.4126 4.19393 14.0613 3.81676 13.6457 3.50682C13.2301 3.19689 12.7647 2.96297 12.2495 2.80509C11.9184 2.70242 11.5736 2.63314 11.2152 2.59723C11.7837 2.72191 12.3128 2.94094 12.8027 3.25431C13.6223 3.76891 14.2662 4.52911 14.7346 5.53493C15.2087 6.5349 15.4458 7.76587 15.4458 9.22782C15.4458 10.6898 15.2087 11.9236 14.7346 12.9295C14.2662 13.9294 13.6223 14.6897 12.8027 15.2101C11.9891 15.7248 11.067 15.982 10.0367 15.982C9.82857 15.982 9.62487 15.9716 9.42569 15.9508C9.80585 16.0346 10.2027 16.0767 10.6163 16.0767C11.1841 16.0767 11.7227 16.0006 12.232 15.8486C12.7471 15.6907 13.2125 15.4598 13.6282 15.1556C14.0438 14.8516 14.395 14.4802 14.6819 14.0416C14.9746 13.5972 15.1765 13.0884 15.2878 12.5153L17.7173 12.5231ZM8.83378 18.378C7.75431 18.2345 6.76497 17.8919 5.86576 17.3504C4.64814 16.6078 3.68807 15.5463 2.9856 14.1664C2.28311 12.7862 1.93188 11.14 1.93188 9.22782C1.93188 7.30974 2.28311 5.66359 2.9856 4.28935C3.68807 2.90927 4.64814 1.85083 5.86576 1.114C7.08924 0.371327 8.47956 0 10.0367 0C10.6371 0 11.2124 0.055613 11.7628 0.16682C11.386 0.118703 10.998 0.0946255 10.5987 0.0946255C9.04739 0.0946255 7.66292 0.465972 6.4453 1.20865C5.22766 1.94547 4.26761 3.00391 3.56512 4.384C2.86265 5.75821 2.51141 7.40438 2.51141 9.32244C2.51141 11.2347 2.85972 12.8808 3.55634 14.261C4.25883 15.6409 5.21888 16.7024 6.43652 17.445C7.17342 17.891 7.9725 18.202 8.83378 18.378Z" fill="white"/>
<path fill-rule="evenodd" clip-rule="evenodd" d="M16.8957 6.18221H18.0273C17.8751 5.21731 17.5824 4.36061 17.1493 3.61211C16.716 2.85773 16.1687 2.22032 15.5072 1.69987C14.8457 1.17358 14.0993 0.775919 13.268 0.506921C12.6441 0.299158 11.9834 0.16993 11.2858 0.11922C11.5097 0.102847 11.7372 0.0946503 11.9684 0.0946503C13.5197 0.0946503 14.9042 0.465978 16.1218 1.20865C17.3453 1.94548 18.3083 3.00392 19.0108 4.38401C19.7133 5.75824 20.0646 7.40439 20.0646 9.32247C20.0646 11.2405 19.7133 12.8896 19.0108 14.2697C18.3083 15.6439 17.3453 16.7025 16.1218 17.445C14.9042 18.1819 13.5197 18.5503 11.9684 18.5503C11.7372 18.5503 11.5096 18.5421 11.2857 18.5259C12.0143 18.4732 12.6985 18.3351 13.3383 18.1117C14.1754 17.8193 14.9189 17.407 15.5687 16.8749C16.2243 16.3369 16.76 15.6994 17.1756 14.9627C17.5971 14.2199 17.881 13.4071 18.0273 12.5241L16.8769 12.5204C17.2107 11.615 17.3775 10.549 17.3775 9.32247C17.3775 8.11925 17.2169 7.07249 16.8957 6.18221ZM11.2989 2.60626C11.0794 2.58094 10.8548 2.56827 10.625 2.56827C9.5888 2.56827 8.66095 2.82849 7.84138 3.34896C7.02769 3.8694 6.38375 4.63254 5.90956 5.63836C5.44124 6.64419 5.20709 7.87221 5.20709 9.32247C5.20709 10.7844 5.44124 12.0183 5.90956 13.0241C6.38375 14.0299 7.0306 14.7901 7.85017 15.3047C8.66973 15.8194 9.59173 16.0767 10.6162 16.0767C10.8477 16.0767 11.0743 16.064 11.296 16.0388C10.5278 15.95 9.82704 15.7053 9.19364 15.3047C8.37993 14.7844 7.73599 14.024 7.26182 13.0241C6.7935 12.0183 6.55933 10.7844 6.55933 9.32247C6.55933 7.86052 6.7935 6.62955 7.26182 5.62958C7.73599 4.62376 8.37993 3.86356 9.19364 3.34896C9.82782 2.94331 10.5296 2.69576 11.2989 2.60626Z" fill="white"/>
<path d="M16.2009 9.32247C16.2009 11.2405 15.8497 12.8896 15.1472 14.2697C14.4447 15.6439 13.4818 16.7025 12.2583 17.445C11.0406 18.1819 9.65618 18.5503 8.10486 18.5503C6.5477 18.5503 5.15737 18.1819 3.93389 17.445C2.71625 16.7025 1.7562 15.6409 1.05372 14.261C0.35124 12.8808 0 11.2347 0 9.32247C0 7.40439 0.35124 5.75824 1.05372 4.38401C1.7562 3.00392 2.71625 1.94548 3.93389 1.20865C5.15737 0.465978 6.5477 0.0946503 8.10486 0.0946503C9.65618 0.0946503 11.0406 0.465978 12.2583 1.20865C13.4818 1.94548 14.4447 3.00392 15.1472 4.38401C15.8497 5.75824 16.2009 7.40439 16.2009 9.32247ZM13.514 9.32247C13.514 7.86052 13.2769 6.62955 12.8027 5.62958C12.3344 4.62376 11.6904 3.86356 10.8709 3.34896C10.0572 2.82849 9.13516 2.56827 8.10486 2.56827C7.0687 2.56827 6.14378 2.82849 5.33006 3.34896C4.51637 3.86356 3.87243 4.62376 3.39824 5.62958C2.92992 6.62955 2.69577 7.86052 2.69577 9.32247C2.69577 10.7844 2.92992 12.0183 3.39824 13.0241C3.87243 14.024 4.51637 14.7844 5.33006 15.3047C6.14378 15.8194 7.0687 16.0767 8.10486 16.0767C9.13516 16.0767 10.0572 15.8194 10.8709 15.3047C11.6904 14.7844 12.3344 14.024 12.8027 13.0241C13.2769 12.0183 13.514 10.7844 13.514 9.32247Z" fill="white"/>
</svg>
