<svg width="160" height="32" viewBox="0 0 160 32" fill="none" xmlns="http://www.w3.org/2000/svg">
<path d="M22.2859 27.8633V11.3391H24.7088L24.7815 14.1012L24.4908 13.9559C24.8139 13.0029 25.3469 12.2841 26.0899 11.7995C26.8328 11.2988 27.689 11.0484 28.6581 11.0484C29.918 11.0484 30.9517 11.3634 31.7594 11.9933C32.5832 12.6071 33.1889 13.4228 33.5766 14.4405C33.9804 15.4581 34.1823 16.5726 34.1823 17.784C34.1823 18.9955 33.9804 20.11 33.5766 21.1276C33.1889 22.1453 32.5832 22.969 31.7594 23.599C30.9517 24.2129 29.918 24.5197 28.6581 24.5197C28.0121 24.5197 27.4064 24.4067 26.841 24.1805C26.2756 23.9543 25.791 23.6393 25.3872 23.2356C24.9996 22.8155 24.7249 22.323 24.5634 21.7576L24.8542 21.4668V27.8633H22.2859ZM28.1978 22.2906C29.2315 22.2906 30.0392 21.8948 30.6207 21.1034C31.2183 20.312 31.5171 19.2054 31.5171 17.784C31.5171 16.3626 31.2183 15.2562 30.6207 14.4647C30.0392 13.6732 29.2315 13.2775 28.1978 13.2775C27.5194 13.2775 26.9297 13.4471 26.4291 13.7863C25.9284 14.1093 25.5407 14.6101 25.2661 15.2885C24.9914 15.9669 24.8542 16.7987 24.8542 17.784C24.8542 18.7693 24.9835 19.6012 25.2419 20.2796C25.5165 20.958 25.9042 21.4668 26.4048 21.806C26.9218 22.1292 27.5194 22.2906 28.1978 22.2906ZM40.0611 24.5197C38.8496 24.5197 37.8239 24.334 36.984 23.9624C36.1602 23.5908 35.5221 23.082 35.0699 22.436C34.6177 21.7737 34.3591 21.0146 34.2946 20.1585L36.9355 20.0373C37.0648 20.7481 37.3716 21.3133 37.8562 21.7334C38.3408 22.1534 39.0758 22.3633 40.0611 22.3633C40.8688 22.3633 41.5067 22.234 41.9751 21.9756C42.4436 21.7173 42.6778 21.3054 42.6778 20.74C42.6778 20.4331 42.597 20.1746 42.4355 19.9646C42.2901 19.7384 41.9994 19.5528 41.5633 19.4074C41.1271 19.2459 40.4811 19.0924 39.6249 18.947C38.3489 18.7047 37.3474 18.4221 36.6206 18.099C35.8937 17.776 35.3767 17.3641 35.0699 16.8633C34.7631 16.3626 34.6096 15.7569 34.6096 15.0462C34.6096 13.867 35.0457 12.9059 35.9179 12.1629C36.8062 11.4199 38.0824 11.0484 39.7461 11.0484C40.8606 11.0484 41.7974 11.2422 42.5566 11.6299C43.3159 12.0014 43.9053 12.5102 44.3254 13.1563C44.7615 13.7863 45.0361 14.497 45.1491 15.2885L42.5082 15.4338C42.4274 14.9816 42.2659 14.5939 42.0236 14.2708C41.7974 13.9316 41.4906 13.6732 41.1029 13.4955C40.7152 13.3017 40.2549 13.2048 39.7219 13.2048C38.8981 13.2048 38.2842 13.3663 37.8805 13.6894C37.4767 14.0124 37.2747 14.4324 37.2747 14.9493C37.2747 15.3369 37.3635 15.6519 37.5413 15.8942C37.7351 16.1365 38.0419 16.3384 38.462 16.4999C38.882 16.6453 39.4393 16.7745 40.1338 16.8876C41.4745 17.1137 42.5243 17.3964 43.2835 17.7356C44.0427 18.0586 44.5758 18.4625 44.8826 18.947C45.1895 19.4316 45.343 20.0212 45.343 20.7157C45.343 21.5234 45.1168 22.2098 44.6646 22.7752C44.2123 23.3406 43.5903 23.7767 42.7989 24.0836C42.0075 24.3743 41.0948 24.5197 40.0611 24.5197ZM53.5818 24.6166C52.0311 24.6166 50.6661 24.2613 49.4871 23.5505C48.308 22.8237 47.3873 21.79 46.725 20.4492C46.0626 19.1085 45.7316 17.5094 45.7316 15.6519C45.7316 13.8105 46.0547 12.2195 46.7007 10.8788C47.3631 9.52198 48.2838 8.48013 49.4628 7.75326C50.6419 7.01025 52.023 6.63873 53.606 6.63873C55.7381 6.63873 57.3938 7.17177 58.5729 8.23784C59.752 9.30392 60.5194 10.7819 60.8747 12.6717L58.1368 12.8171C57.9106 11.638 57.426 10.7173 56.6831 10.055C55.9401 9.3766 54.9143 9.0374 53.606 9.0374C52.556 9.0374 51.6434 9.30392 50.8681 9.83695C50.1089 10.37 49.5113 11.1292 49.0752 12.1145C48.6551 13.0998 48.4452 14.2789 48.4452 15.6519C48.4452 17.0249 48.6551 18.204 49.0752 19.1893C49.5113 20.1746 50.117 20.9257 50.8923 21.4426C51.6677 21.9596 52.5641 22.2179 53.5818 22.2179C54.9709 22.2179 56.045 21.8545 56.8042 21.1276C57.5795 20.3847 58.0641 19.3671 58.2579 18.0748L60.9958 18.2202C60.7859 19.5285 60.3659 20.6591 59.7359 21.6122C59.106 22.5653 58.274 23.3082 57.2403 23.8413C56.2066 24.3582 54.987 24.6166 53.5818 24.6166ZM67.1761 24.5197C65.9485 24.5197 64.8743 24.245 63.9536 23.6959C63.0329 23.1468 62.3222 22.3633 61.8215 21.3457C61.3208 20.3281 61.0704 19.1409 61.0704 17.784C61.0704 16.4111 61.3208 15.2239 61.8215 14.2224C62.3222 13.2209 63.0329 12.4456 63.9536 11.8964C64.8743 11.3311 65.9485 11.0484 67.1761 11.0484C68.4036 11.0484 69.4778 11.3311 70.3985 11.8964C71.3192 12.4456 72.03 13.2209 72.5307 14.2224C73.0313 15.2239 73.2818 16.4111 73.2818 17.784C73.2818 19.1409 73.0313 20.3281 72.5307 21.3457C72.03 22.3633 71.3192 23.1468 70.3985 23.6959C69.4778 24.245 68.4036 24.5197 67.1761 24.5197ZM67.1761 22.2906C68.2745 22.2906 69.1225 21.8948 69.7201 21.1034C70.3177 20.2957 70.6166 19.1893 70.6166 17.784C70.6166 16.3788 70.3177 15.2804 69.7201 14.4889C69.1225 13.6813 68.2745 13.2775 67.1761 13.2775C66.0939 13.2775 65.2459 13.6813 64.632 14.4889C64.0345 15.2804 63.7356 16.3788 63.7356 17.784C63.7356 19.1893 64.0345 20.2957 64.632 21.1034C65.2459 21.8948 66.0939 22.2906 67.1761 22.2906ZM74.1813 24.2289V11.3391H76.5315L76.6042 14.5374L76.3134 14.4405C76.4588 13.7297 76.7092 13.124 77.0645 12.6233C77.4361 12.1226 77.8883 11.7349 78.4213 11.4603C78.9544 11.1857 79.5359 11.0484 80.1658 11.0484C81.2643 11.0484 82.1607 11.3634 82.8552 11.9933C83.5497 12.6071 83.9859 13.4551 84.1636 14.5374H83.7517C83.8971 13.7782 84.1394 13.1482 84.4786 12.6475C84.8339 12.1306 85.2863 11.7349 85.8354 11.4603C86.3845 11.1857 87.0065 11.0484 87.701 11.0484C88.6056 11.0484 89.3728 11.2422 90.0028 11.6299C90.6488 12.0014 91.1334 12.5506 91.4565 13.2775C91.7957 14.0043 91.9653 14.8927 91.9653 15.9426V24.2289H89.397V16.5726C89.397 15.4581 89.1951 14.6181 88.7913 14.0528C88.3876 13.4874 87.7737 13.2048 86.9499 13.2048C86.4169 13.2048 85.9484 13.3421 85.5446 13.6167C85.1409 13.8913 84.8259 14.287 84.5997 14.8039C84.3898 15.3208 84.2847 15.9426 84.2847 16.6695V24.2289H81.8376V16.6695C81.8376 15.5711 81.6519 14.7231 81.2804 14.1255C80.9251 13.5117 80.3112 13.2048 79.439 13.2048C78.8898 13.2048 78.4132 13.3421 78.0094 13.6167C77.6218 13.8913 77.3149 14.2951 77.0887 14.8281C76.8625 15.345 76.7495 15.9588 76.7495 16.6695V24.2289H74.1813ZM93.4726 27.8633V11.3391H95.8955L95.9682 14.1012L95.6775 13.9559C96.0006 13.0029 96.5336 12.2841 97.2766 11.7995C98.0195 11.2988 98.8757 11.0484 99.8448 11.0484C101.105 11.0484 102.138 11.3634 102.946 11.9933C103.77 12.6071 104.376 13.4228 104.763 14.4405C105.167 15.4581 105.369 16.5726 105.369 17.784C105.369 18.9955 105.167 20.11 104.763 21.1276C104.376 22.1453 103.77 22.969 102.946 23.599C102.138 24.2129 101.105 24.5197 99.8448 24.5197C99.1988 24.5197 98.5931 24.4067 98.0277 24.1805C97.4623 23.9543 96.9777 23.6393 96.5739 23.2356C96.1863 22.8155 95.9116 22.323 95.7501 21.7576L96.0409 21.4668V27.8633H93.4726ZM99.3845 22.2906C100.418 22.2906 101.226 21.8948 101.807 21.1034C102.405 20.312 102.704 19.2054 102.704 17.784C102.704 16.3626 102.405 15.2562 101.807 14.4647C101.226 13.6732 100.418 13.2775 99.3845 13.2775C98.7061 13.2775 98.1164 13.4471 97.6158 13.7863C97.1151 14.1093 96.7274 14.6101 96.4528 15.2885C96.1781 15.9669 96.0409 16.7987 96.0409 17.784C96.0409 18.7693 96.1702 19.6012 96.4285 20.2796C96.7032 20.958 97.0909 21.4668 97.5915 21.806C98.1085 22.1292 98.7061 22.2906 99.3845 22.2906ZM110.151 24.5197C108.81 24.5197 107.736 24.2129 106.929 23.599C106.137 22.9851 105.742 22.121 105.742 21.0065C105.742 19.892 106.073 19.0279 106.735 18.414C107.413 17.784 108.455 17.3318 109.86 17.0572L114.294 16.2092C114.294 15.2077 114.06 14.4647 113.592 13.9801C113.123 13.4794 112.429 13.229 111.508 13.229C110.684 13.229 110.038 13.4148 109.57 13.7863C109.101 14.1416 108.778 14.6747 108.601 15.3854L105.96 15.2158C106.202 13.9236 106.799 12.9059 107.753 12.1629C108.722 11.4199 109.973 11.0484 111.508 11.0484C113.253 11.0484 114.577 11.5168 115.482 12.4537C116.402 13.3744 116.863 14.6747 116.863 16.3545V21.3699C116.863 21.6768 116.911 21.8948 117.008 22.0241C117.121 22.1371 117.299 22.1937 117.541 22.1937H118.001V24.2289C117.921 24.245 117.791 24.2613 117.614 24.2774C117.436 24.2935 117.25 24.3016 117.056 24.3016C116.507 24.3016 116.031 24.2129 115.627 24.0351C115.239 23.8574 114.949 23.5666 114.755 23.1629C114.561 22.7428 114.464 22.1856 114.464 21.4911L114.73 21.6122C114.601 22.1776 114.319 22.6783 113.882 23.1144C113.462 23.5505 112.921 23.8979 112.259 24.1563C111.613 24.3985 110.91 24.5197 110.151 24.5197ZM110.563 22.4845C111.338 22.4845 112.001 22.3391 112.55 22.0483C113.099 21.7415 113.527 21.3215 113.834 20.7884C114.141 20.2554 114.294 19.6497 114.294 18.9713V18.1475L110.515 18.8743C109.739 19.0197 109.19 19.2539 108.867 19.577C108.56 19.8838 108.407 20.2796 108.407 20.7642C108.407 21.3133 108.592 21.7415 108.964 22.0483C109.352 22.3391 109.885 22.4845 110.563 22.4845ZM118.474 24.2289V11.3391H120.824L120.921 14.7797L120.606 14.6101C120.751 13.7701 121.026 13.0917 121.43 12.5748C121.834 12.0579 122.326 11.6784 122.908 11.4361C123.489 11.1776 124.119 11.0484 124.798 11.0484C125.767 11.0484 126.566 11.2665 127.196 11.7026C127.842 12.1226 128.327 12.704 128.65 13.4471C128.989 14.1739 129.159 15.0058 129.159 15.9426V24.2289H126.591V16.718C126.591 15.9588 126.51 15.3208 126.348 14.8039C126.187 14.287 125.92 13.8913 125.549 13.6167C125.177 13.3421 124.693 13.2048 124.095 13.2048C123.19 13.2048 122.456 13.5036 121.89 14.1012C121.325 14.6989 121.042 15.5711 121.042 16.718V24.2289H118.474ZM130.856 24.2289V11.3391H133.424V24.2289H130.856ZM130.808 9.47352V6.90525H133.473V9.47352H130.808ZM140.429 24.5197C139.201 24.5197 138.127 24.245 137.206 23.6959C136.286 23.1468 135.575 22.3633 135.074 21.3457C134.574 20.3281 134.323 19.1409 134.323 17.784C134.323 16.4111 134.574 15.2239 135.074 14.2224C135.575 13.2209 136.286 12.4456 137.206 11.8964C138.127 11.3311 139.201 11.0484 140.429 11.0484C141.656 11.0484 142.731 11.3311 143.651 11.8964C144.572 12.4456 145.283 13.2209 145.783 14.2224C146.284 15.2239 146.535 16.4111 146.535 17.784C146.535 19.1409 146.284 20.3281 145.783 21.3457C145.283 22.3633 144.572 23.1468 143.651 23.6959C142.731 24.245 141.656 24.5197 140.429 24.5197ZM140.429 22.2906C141.527 22.2906 142.375 21.8948 142.973 21.1034C143.57 20.2957 143.869 19.1893 143.869 17.784C143.869 16.3788 143.57 15.2804 142.973 14.4889C142.375 13.6813 141.527 13.2775 140.429 13.2775C139.347 13.2775 138.499 13.6813 137.885 14.4889C137.287 15.2804 136.988 16.3788 136.988 17.784C136.988 19.1893 137.287 20.2957 137.885 21.1034C138.499 21.8948 139.347 22.2906 140.429 22.2906ZM147.434 24.2289V11.3391H149.784L149.881 14.7797L149.566 14.6101C149.712 13.7701 149.986 13.0917 150.39 12.5748C150.794 12.0579 151.286 11.6784 151.868 11.4361C152.449 11.1776 153.079 11.0484 153.758 11.0484C154.727 11.0484 155.527 11.2665 156.156 11.7026C156.803 12.1226 157.287 12.704 157.61 13.4471C157.949 14.1739 158.119 15.0058 158.119 15.9426V24.2289H155.551V16.718C155.551 15.9588 155.47 15.3208 155.308 14.8039C155.147 14.287 154.88 13.8913 154.509 13.6167C154.137 13.3421 153.653 13.2048 153.055 13.2048C152.151 13.2048 151.416 13.5036 150.85 14.1012C150.285 14.6989 150.002 15.5711 150.002 16.718V24.2289H147.434Z" fill="white"/>
<path fill-rule="evenodd" clip-rule="evenodd" d="M17.7429 18.0125C18.0199 17.0202 18.1584 15.9217 18.1584 14.7172C18.1584 13.6117 18.0417 12.5964 17.8084 11.6716H15.3134C15.208 11.0868 15.0119 10.5722 14.725 10.1277C14.4382 9.68331 14.0869 9.30614 13.6713 8.9962C13.2557 8.68627 12.7903 8.45235 12.2751 8.29447C11.944 8.1918 11.5992 8.12252 11.2408 8.08661C11.8093 8.21129 12.3384 8.43032 12.8283 8.74369C13.6479 9.25829 14.2919 10.0185 14.7602 11.0243C15.2343 12.0243 15.4714 13.2552 15.4714 14.7172C15.4714 16.1791 15.2343 17.413 14.7602 18.4188C14.2919 19.4187 13.6479 20.1791 12.8283 20.6995C12.0147 21.2141 11.0926 21.4714 10.0623 21.4714C9.85417 21.4714 9.65048 21.461 9.45129 21.4402C9.83146 21.524 10.2283 21.566 10.6419 21.566C11.2097 21.566 11.7483 21.4899 12.2576 21.3379C12.7727 21.1801 13.2381 20.9491 13.6538 20.645C14.0694 20.341 14.4206 19.9696 14.7075 19.531C15.0002 19.0865 15.2021 18.5778 15.3134 18.0047L17.7429 18.0125ZM8.85939 23.8674C7.77991 23.7239 6.79057 23.3813 5.89136 22.8398C4.67374 22.0972 3.71367 21.0356 3.0112 19.6557C2.30871 18.2756 1.95749 16.6294 1.95749 14.7172C1.95749 12.7991 2.30871 11.153 3.0112 9.77873C3.71367 8.39865 4.67374 7.34021 5.89136 6.60338C7.11485 5.86071 8.50517 5.48938 10.0623 5.48938C10.6627 5.48938 11.238 5.54499 11.7884 5.6562C11.4116 5.60808 11.0236 5.58401 10.6243 5.58401C9.073 5.58401 7.68852 5.95535 6.4709 6.69803C5.25327 7.43485 4.29322 8.49329 3.59073 9.87338C2.88826 11.2476 2.53701 12.8938 2.53701 14.8118C2.53701 16.7241 2.88532 18.3702 3.58194 19.7504C4.28443 21.1303 5.24448 22.1918 6.46212 22.9344C7.19902 23.3804 7.9981 23.6914 8.85939 23.8674Z" fill="white"/>
<path fill-rule="evenodd" clip-rule="evenodd" d="M16.9213 11.6715H18.0529C17.9007 10.7066 17.608 9.84994 17.1749 9.10144C16.7416 8.34707 16.1943 7.70966 15.5328 7.18921C14.8713 6.66291 14.1249 6.26525 13.2936 5.99625C12.6697 5.78849 12.009 5.65926 11.3114 5.60855C11.5353 5.59218 11.7628 5.58398 11.994 5.58398C13.5453 5.58398 14.9298 5.95531 16.1475 6.69799C17.3709 7.43481 18.3339 8.49326 19.0364 9.87334C19.7389 11.2476 20.0902 12.8937 20.0902 14.8118C20.0902 16.7299 19.7389 18.3789 19.0364 19.759C18.3339 21.1333 17.3709 22.1918 16.1475 22.9344C14.9298 23.6713 13.5453 24.0396 11.994 24.0396C11.7628 24.0396 11.5352 24.0315 11.3113 24.0152C12.0399 23.9626 12.7241 23.8244 13.3639 23.601C14.201 23.3086 14.9445 22.8963 15.5943 22.3642C16.2499 21.8263 16.7856 21.1887 17.2012 20.452C17.6227 19.7093 17.9066 18.8965 18.0529 18.0135L16.9025 18.0098C17.2363 17.1043 17.4031 16.0383 17.4031 14.8118C17.4031 13.6086 17.2425 12.5618 16.9213 11.6715ZM11.3245 8.0956C11.105 8.07027 10.8804 8.05761 10.6506 8.05761C9.6144 8.05761 8.68655 8.31782 7.86699 8.83829C7.05329 9.35874 6.40935 10.1219 5.93517 11.1277C5.46685 12.1335 5.2327 13.3615 5.2327 14.8118C5.2327 16.2738 5.46685 17.5076 5.93517 18.5135C6.40935 19.5192 7.05621 20.2794 7.87577 20.7941C8.69533 21.3088 9.61734 21.566 10.6418 21.566C10.8733 21.566 11.0999 21.5533 11.3216 21.5281C10.5534 21.4394 9.85264 21.1946 9.21925 20.7941C8.40553 20.2737 7.76159 19.5134 7.28742 18.5135C6.8191 17.5076 6.58494 16.2738 6.58494 14.8118C6.58494 13.3499 6.8191 12.1189 7.28742 11.1189C7.76159 10.1131 8.40553 9.35289 9.21925 8.83829C9.85342 8.43264 10.5552 8.18509 11.3245 8.0956Z" fill="white"/>
<path d="M16.2265 14.8118C16.2265 16.7299 15.8753 18.3789 15.1728 19.759C14.4703 21.1333 13.5073 22.1918 12.2838 22.9344C11.0662 23.6713 9.68175 24.0396 8.13044 24.0396C6.57327 24.0396 5.18295 23.6713 3.95946 22.9344C2.74183 22.1918 1.78177 21.1303 1.07929 19.7503C0.376814 18.3702 0.0255737 16.724 0.0255737 14.8118C0.0255737 12.8937 0.376814 11.2476 1.07929 9.87334C1.78177 8.49326 2.74183 7.43481 3.95946 6.69799C5.18295 5.95531 6.57327 5.58398 8.13044 5.58398C9.68175 5.58398 11.0662 5.95531 12.2838 6.69799C13.5073 7.43481 14.4703 8.49326 15.1728 9.87334C15.8753 11.2476 16.2265 12.8937 16.2265 14.8118ZM13.5395 14.8118C13.5395 13.3499 13.3024 12.1189 12.8283 11.1189C12.3599 10.1131 11.716 9.35289 10.8965 8.83829C10.0827 8.31782 9.16073 8.05761 8.13044 8.05761C7.09427 8.05761 6.16935 8.31782 5.35564 8.83829C4.54194 9.35289 3.898 10.1131 3.42381 11.1189C2.9555 12.1189 2.72135 13.3499 2.72135 14.8118C2.72135 16.2738 2.9555 17.5076 3.42381 18.5135C3.898 19.5134 4.54194 20.2737 5.35564 20.7941C6.16935 21.3088 7.09427 21.566 8.13044 21.566C9.16073 21.566 10.0827 21.3088 10.8965 20.7941C11.716 20.2737 12.3599 19.5134 12.8283 18.5135C13.3024 17.5076 13.5395 16.2738 13.5395 14.8118Z" fill="white"/>
</svg>
